<svg width="26" height="26" viewBox="0 0 26 26" fill="none" xmlns="http://www.w3.org/2000/svg">
<path d="M6.5 7.79997C6.5 6.42085 7.04786 5.09821 8.02304 4.12302C8.99823 3.14783 10.3209 2.59998 11.7 2.59998C13.0791 2.59998 14.4018 3.14783 15.377 4.12302C16.3521 5.09821 16.9 6.42085 16.9 7.79997C16.9 9.1791 16.3521 10.5017 15.377 11.4769C14.4018 12.4521 13.0791 13 11.7 13C10.3209 13 8.99823 12.4521 8.02304 11.4769C7.04786 10.5017 6.5 9.1791 6.5 7.79997ZM11.7 3.89998C10.6657 3.89998 9.67368 4.31087 8.94228 5.04226C8.21089 5.77365 7.8 6.76563 7.8 7.79997C7.8 8.83432 8.21089 9.8263 8.94228 10.5577C9.67368 11.2891 10.6657 11.7 11.7 11.7C12.7343 11.7 13.7263 11.2891 14.4577 10.5577C15.1891 9.8263 15.6 8.83432 15.6 7.79997C15.6 6.76563 15.1891 5.77365 14.4577 5.04226C13.7263 4.31087 12.7343 3.89998 11.7 3.89998Z" fill="white"/>
<path d="M2.6001 16.8999C2.6001 15.453 3.774 14.2999 5.2118 14.2999H18.2001C18.5771 14.2999 18.9346 14.3805 19.257 14.5235C19.1114 15.0981 19.1582 15.7065 19.387 16.2499H19.3259C19.2118 16.0523 19.0477 15.8882 18.8501 15.7741C18.6525 15.66 18.4283 15.5999 18.2001 15.5999H5.2118C4.4825 15.5999 3.9001 16.181 3.9001 16.8999C3.9001 18.6016 4.7087 19.8691 6.075 20.7388C7.466 21.6267 9.4446 22.0999 11.7001 22.0999C12.9507 22.0999 14.1155 21.9543 15.1425 21.6735C14.9683 22.112 14.9109 22.5882 14.9761 23.0554C13.9504 23.2868 12.8441 23.3999 11.7001 23.3999C9.2886 23.3999 7.0422 22.8981 5.3756 21.836C3.683 20.757 2.6001 19.0969 2.6001 16.8999Z" fill="white"/>
<path d="M20.5855 14.6445L21.1042 13.4212C21.3473 12.8466 21.9297 12.5346 22.5017 12.6542L22.6239 12.6854L23.2739 12.8934C23.9187 13.1001 24.4114 13.6513 24.5713 14.3442C24.9496 15.9913 24.4959 17.9972 23.2076 20.3606C21.9219 22.7214 20.514 24.1397 18.9813 24.6181C18.3859 24.804 17.7463 24.6701 17.2653 24.2658L17.1392 24.1488L16.6452 23.6535C16.4377 23.4399 16.3036 23.1657 16.2625 22.8707C16.2213 22.5757 16.2752 22.2752 16.4164 22.0129L16.4892 21.8933L17.2328 20.8013C17.368 20.5952 17.5619 20.4343 17.7895 20.3396C18.0171 20.2448 18.2678 20.2204 18.5094 20.2696L18.6394 20.3047L20.0135 20.7636C20.5608 20.3476 21.0184 19.8276 21.3837 19.1971C21.697 18.6576 21.9037 18.1116 21.9986 17.5578L22.0376 17.2796L20.8949 16.1941C20.7105 16.0144 20.5793 15.7872 20.516 15.5375C20.4527 15.2879 20.4596 15.0256 20.5361 14.7797L20.5842 14.6445H20.5855Z" fill="white"/>
</svg>
